{"title":"Thor The Dark World V2 2013 CAM AAC x264-SSDD","uid":9206791,"size":1505386982,"categoryP":"video","categoryS":"movies","magnet":"?xt=urn:btih:1d645e69ba31ce7f4d51aae696a3928b41c869aa&amp;dn=Thor+The+Dark+World+V2+2013+CAM+AAC+x264-SSDD&amp;tr=udp%3A%2F%2Ftracker.openbittorrent.com%3A80&amp;tr=udp%3A%2F%2Fopen.demonii.com%3A1337&amp;tr=udp%3A%2F%2Ftracker.coppersurfer.tk%3A6969&amp;tr=udp%3A%2F%2Fexodus.desync.com%3A6969","seeders":22,"leechers":0,"uploader":"xxxlavalxxx","files":-1,"time":1384711038,"description":"\n &lt;a href=&quot;\nhttp://www.imdb.com/title/tt1981115/&quot; rel=&quot;nofollow&quot; target=&quot;_NEW&quot;&gt;\nhttp://www.imdb.com/title/tt1981115/&lt;/a&gt;\n\n\nFaced with an enemy that even Odin and Asgard cannot withstand, Thor must embark on his most perilous and personal journey yet, one that will reunite him with Jane Foster and force him to sacrifice everything to save us all.\n\nDirector: Alan Taylor\nWriters: Christopher Yost (screenplay), Christopher Markus (screenplay)\nStars: Chris Hemsworth, Natalie Portman, Tom Hiddleston\nGenres: Action | Adventure | Fantasy\nCountry: USA\nLanguage: English\n\n\n\n\nSource -  Video - A Friend :) Audio - KinGofJeffS :)\n\nPlot - Faced with an enemy that even Odin and Asgard cannot withstand, Thor must embark on his most perilous and personal journey yet, one that will reunite him with Jane Foster and force him to sacrifice everything to save us all. \n\nNOTES - This is our V2 with higher video and audio bitrate, we took the source and completly reworked it with alot of filters and tweaking, i believe it is better than V1 and took many hours to encode, cant say we dont give u choice :wink: Sample Included.\n\nGeneral\nComplete name                            : Thor The Dark World V2 2013 CAM AAC x264-SSDD.mp4\nFormat                                   : MPEG-4\nFormat profile                           : Base Media\nCodec ID                                 : isom\nFile size                                : 1.37 GiB\nDuration                                 : 1h 43mn\nOverall bit rate mode                    : Variable\nOverall bit rate                         : 1 890 Kbps\n\nVideo\nID                                       : 1\nFormat                                   : AVC\nFormat/Info                              : Advanced Video Codec\nFormat profile                           : &lt;a class=&quot;__cf_email__&quot; href=&quot;/cdn-cgi/l/email-protection&quot; data-cfemail=&quot;c58daca2ad8589f1ebf4&quot;&gt;[email&amp;#160;protected]&lt;/a&gt;&lt;script cf-hash='f9e31' type=&quot;text/javascript&quot;&gt;\n/* &lt;![CDATA[ */!function(){try{var t=&quot;currentScript&quot;in document?document.currentScript:function(){for(var t=document.getElementsByTagName(&quot;script&quot;),e=t.length;e--;)if(t[e].getAttribute(&quot;cf-hash&quot;))return t[e]}();if(t&amp;&amp;t.previousSibling){var e,r,n,i,c=t.previousSibling,a=c.getAttribute(&quot;data-cfemail&quot;);if(a){for(e=&quot;&quot;,r=parseInt(a.substr(0,2),16),n=2;a.length-n;n+=2)i=parseInt(a.substr(n,2),16)^r,e+=String.fromCharCode(i);e=document.createTextNode(e),c.parentNode.replaceChild(e,c)}}}catch(u){}}();/* ]]&gt; */&lt;/script&gt;\nFormat settings, CABAC                   : Yes\nFormat settings, ReFrames                : 4 frames\nCodec ID                                 : avc1\nCodec ID/Info                            : Advanced Video Coding\nDuration                                 : 1h 43mn\nBit rate                                 : 1 757 Kbps\nMaximum bit rate                         : 3 758 Kbps\nWidth                                    : 720 pixels\nHeight                                   : 304 pixels\nDisplay aspect ratio                     : 2.35:1\nFrame rate mode                          : Constant\nFrame rate                               : 50.000 fps\nColor space                              : YUV\nChroma subsampling                       : 4:2:0\nBit depth                                : 8 bits\nScan type                                : Progressive\nBits/(Pixel*Frame)                       : 0.161\nStream size                              : 1.27 GiB (93%)\nWriting library                          : x264 core 140 r2377 1ca7bb9\n\nAudio\nID                                       : 2\nFormat                                   : AAC\nFormat/Info                              : Advanced Audio Codec\nFormat profile                           : LC\nCodec ID                                 : 40\nDuration                                 : 1h 43mn\nBit rate mode                            : Variable\nBit rate                                 : 128 Kbps\nMaximum bit rate                         : 133 Kbps\nChannel count                            : 2 channels\nChannel positions                        : Front: L R\nSampling rate                            : 48.0 KHz\nCompression mode                         : Lossy\nStream size                              : 94.8 MiB (7%)\n\n\n\nscreens\n &lt;a href=&quot;\nhttp://i.imgur.com/HNL8V4O.png&quot; rel=&quot;nofollow&quot; target=&quot;_NEW&quot;&gt;\nhttp://i.imgur.com/HNL8V4O.png&lt;/a&gt; &lt;a href=&quot;\nhttp://i.imgur.com/krAJsg6.png&quot; rel=&quot;nofollow&quot; target=&quot;_NEW&quot;&gt;\nhttp://i.imgur.com/krAJsg6.png&lt;/a&gt; &lt;a href=&quot;\nhttp://i.imgur.com/LOX1nE5.png&quot; rel=&quot;nofollow&quot; target=&quot;_NEW&quot;&gt;\nhttp://i.imgur.com/LOX1nE5.png&lt;/a&gt; &lt;a href=&quot;\nhttp://i.imgur.com/oyxCQCw.png&quot; rel=&quot;nofollow&quot; target=&quot;_NEW&quot;&gt;\nhttp://i.imgur.com/oyxCQCw.png&lt;/a&gt;","torrent":{"xt":"urn:btih:1d645e69ba31ce7f4d51aae696a3928b41c869aa","amp;dn":"Thor+The+Dark+World+V2+2013+CAM+AAC+x264-SSDD","amp;tr":["udp%3A%2F%2Ftracker.openbittorrent.com%3A80","udp%3A%2F%2Fopen.demonii.com%3A1337","udp%3A%2F%2Ftracker.coppersurfer.tk%3A6969","udp%3A%2F%2Fexodus.desync.com%3A6969"],"infoHash":"1d645e69ba31ce7f4d51aae696a3928b41c869aa","infoHashBuffer":{"type":"Buffer","data":[29,100,94,105,186,49,206,127,77,81,170,230,150,163,146,139,65,200,105,170]},"announce":[],"urlList":[]}}